<?xml version="1.0" encoding="UTF-8"?>
<!DOCTYPE svg PUBLIC "-//W3C//DTD SVG 1.1//EN" "http://www.w3.org/Graphics/SVG/1.1/DTD/svg11.dtd">
<svg xmlns="http://www.w3.org/2000/svg" version="1.1" width="1088px" height="1094px" style="shape-rendering:geometricPrecision; text-rendering:geometricPrecision; image-rendering:optimizeQuality; fill-rule:evenodd; clip-rule:evenodd" xmlns:xlink="http://www.w3.org/1999/xlink">
<g><path style="opacity:0.989" fill="#fefdfe" d="M 895.5,1093.5 C 660.167,1093.5 424.833,1093.5 189.5,1093.5C 104.927,1083.81 46.094,1039.81 13,961.5C 6.63368,944.368 2.63368,926.701 1,908.5C 0.333333,667.5 0.333333,426.5 1,185.5C 8.97997,115.245 43.1466,62.0785 103.5,26C 127.876,12.6526 153.876,4.31922 181.5,1C 422.5,0.333333 663.5,0.333333 904.5,1C 989.758,13.2646 1047.26,59.7646 1077,140.5C 1080.69,152.268 1083.35,164.268 1085,176.5C 1085.67,423.5 1085.67,670.5 1085,917.5C 1075.49,978.066 1045.66,1025.57 995.5,1060C 964.885,1079.48 931.552,1090.65 895.5,1093.5 Z"/></g>
<g><path style="opacity:1" fill="#66207b" d="M 192.5,37.5 C 429.18,37.0134 665.846,37.5134 902.5,39C 972.409,49.9162 1018.91,88.7496 1042,155.5C 1044.64,165.035 1046.64,174.702 1048,184.5C 1048.67,425.5 1048.67,666.5 1048,907.5C 1038.72,972.757 1003.88,1018.26 943.5,1044C 925.845,1051 907.512,1054.66 888.5,1055C 657.833,1055.67 427.167,1055.67 196.5,1055C 129.464,1049.58 81.297,1016.75 52,956.5C 45.6353,940.708 41.302,924.375 39,907.5C 38.3333,666.833 38.3333,426.167 39,185.5C 49.8584,114.311 89.3584,67.1445 157.5,44C 169.152,40.9675 180.819,38.8009 192.5,37.5 Z"/></g>
<g><path style="opacity:1" fill="#69267d" d="M 900.5,266.5 C 889.81,215.953 862.476,177.12 818.5,150C 778.845,128.338 736.512,114.672 691.5,109C 671.59,106.285 651.59,104.785 631.5,104.5C 631.5,104.167 631.5,103.833 631.5,103.5C 635.514,103.666 639.514,103.499 643.5,103C 641.5,102.667 639.5,102.333 637.5,102C 638.5,101.5 639.5,101 640.5,100.5C 643.11,100.76 645.61,100.76 648,100.5C 658.445,101.301 668.945,102.134 679.5,103C 683.221,103.644 686.887,104.477 690.5,105.5C 691.607,104.978 692.774,104.645 694,104.5C 704.289,106.388 714.289,108.388 724,110.5C 758.298,116.563 790.798,128.396 821.5,146C 865.838,172.685 893.171,211.351 903.5,262C 903.2,264.024 902.367,264.524 901,263.5C 900.517,264.448 900.351,265.448 900.5,266.5 Z"/></g>
<g><path style="opacity:1" fill="#f0eaf3" d="M 631.5,103.5 C 631.5,103.833 631.5,104.167 631.5,104.5C 535.5,104.5 439.5,104.5 343.5,104.5C 343.405,106.786 342.738,108.786 341.5,110.5C 341.674,108.139 342.007,105.806 342.5,103.5C 438.833,103.5 535.167,103.5 631.5,103.5 Z"/></g>
<g><path style="opacity:1" fill="#fefefe" d="M 631.5,104.5 C 651.59,104.785 671.59,106.285 691.5,109C 736.512,114.672 778.845,128.338 818.5,150C 862.476,177.12 889.81,215.953 900.5,266.5C 900.5,268.167 900.5,269.833 900.5,271.5C 900.527,277.051 901.194,282.384 902.5,287.5C 902.667,299.171 902.5,310.838 902,322.5C 901.566,328.243 900.733,333.909 899.5,339.5C 838.17,340.5 776.837,340.833 715.5,340.5C 717.267,303.445 701.601,276.612 668.5,260C 647.406,251.149 625.406,246.149 602.5,245C 567.502,244.5 532.502,244.333 497.5,244.5C 491.397,276.113 485.397,307.78 479.5,339.5C 418.5,339.5 357.5,339.5 296.5,339.5C 296.5,337.833 296.5,336.167 296.5,334.5C 311.245,259.773 326.245,185.107 341.5,110.5C 342.738,108.786 343.405,106.786 343.5,104.5C 439.5,104.5 535.5,104.5 631.5,104.5 Z"/></g>
<g><path style="opacity:1" fill="#d0bad6" d="M 900.5,271.5 C 901.957,276.598 902.624,281.931 902.5,287.5C 901.194,282.384 900.527,277.051 900.5,271.5 Z"/></g>
<g><path style="opacity:1" fill="#dfd1e3" d="M 296.5,334.5 C 296.5,336.167 296.5,337.833 296.5,339.5C 357.5,339.5 418.5,339.5 479.5,339.5C 418.336,340.499 357.002,340.832 295.5,340.5C 295.205,338.265 295.539,336.265 296.5,334.5 Z"/></g>
<g><path style="opacity:1" fill="#d8c8de" d="M 706.5,383.5 C 766.335,382.169 826.335,382.169 886.5,383.5C 886.376,384.107 886.043,384.44 885.5,384.5C 826.002,383.501 766.336,383.168 706.5,383.5 Z"/></g>
<g><path style="opacity:1" fill="#fefefe" d="M 456.5,455.5 C 455.539,457.265 455.205,459.265 455.5,461.5C 490.671,461.832 525.671,461.498 560.5,460.5C 568.17,460.222 575.836,459.889 583.5,459.5C 590.16,459.694 596.493,458.694 602.5,456.5C 631.01,452.731 656.344,441.897 678.5,424C 690.68,412.474 700.014,398.974 706.5,383.5C 766.336,383.168 826.002,383.501 885.5,384.5C 870.799,417.031 849.465,444.531 821.5,467C 789.561,492.137 753.894,510.137 714.5,521C 713.373,522.753 712.373,524.587 711.5,526.5C 743.958,534.363 773.958,547.53 801.5,566C 838.312,592.781 858.646,628.947 862.5,674.5C 862.5,681.167 862.5,687.833 862.5,694.5C 803.833,694.5 745.167,694.5 686.5,694.5C 686.806,691.615 686.473,688.948 685.5,686.5C 682.143,640.304 658.477,609.804 614.5,595C 594.556,589.465 574.223,586.465 553.5,586C 512.5,585.333 471.5,585.333 430.5,586C 422.746,622.61 415.079,659.11 407.5,695.5C 346.5,695.5 285.5,695.5 224.5,695.5C 224.5,694.5 224.5,693.5 224.5,692.5C 244.687,589.415 265.354,486.415 286.5,383.5C 347.83,382.5 409.163,382.167 470.5,382.5C 465.834,406.828 461.168,431.161 456.5,455.5 Z"/></g>
<g><path style="opacity:1" fill="#d3bfd9" d="M 602.5,456.5 C 596.493,458.694 590.16,459.694 583.5,459.5C 589.659,458.237 595.992,457.237 602.5,456.5 Z"/></g>
<g><path style="opacity:1" fill="#814992" d="M 456.5,455.5 C 456.5,457.167 456.5,458.833 456.5,460.5C 491.167,460.5 525.833,460.5 560.5,460.5C 525.671,461.498 490.671,461.832 455.5,461.5C 455.205,459.265 455.539,457.265 456.5,455.5 Z"/></g>
<g><path style="opacity:1" fill="#e9dfeb" d="M 862.5,674.5 C 863.491,681.313 863.825,688.313 863.5,695.5C 804.167,695.5 744.833,695.5 685.5,695.5C 685.5,692.5 685.5,689.5 685.5,686.5C 686.473,688.948 686.806,691.615 686.5,694.5C 745.167,694.5 803.833,694.5 862.5,694.5C 862.5,687.833 862.5,681.167 862.5,674.5 Z"/></g>
<g><path style="opacity:1" fill="#783b8a" d="M 224.5,692.5 C 224.5,693.5 224.5,694.5 224.5,695.5C 285.5,695.5 346.5,695.5 407.5,695.5C 346.336,696.499 285.002,696.832 223.5,696.5C 223.232,694.901 223.566,693.568 224.5,692.5 Z"/></g>
<g><path style="opacity:1" fill="#6b297f" d="M 560.5,973.5 C 602.403,968.416 643.403,958.916 683.5,945C 732.157,927.603 773.324,899.436 807,860.5C 835.697,824.76 853.197,784.094 859.5,738.5C 799.83,738.167 740.163,738.5 680.5,739.5C 667.613,777.221 642.613,803.388 605.5,818C 594.123,822.592 582.457,826.092 570.5,828.5C 569.469,827.751 568.302,827.085 567,826.5C 567.449,823.824 568.449,823.824 570,826.5C 570.692,825.975 571.192,825.308 571.5,824.5C 574.495,823.867 577.328,822.867 580,821.5C 580.807,825.449 581.307,825.449 581.5,821.5C 596.038,817.669 610.205,811.669 624,803.5C 650.754,787.754 668.587,764.754 677.5,734.5C 739.192,735.666 800.859,735.833 862.5,735C 863.739,741.649 863.072,748.315 860.5,755C 861.022,755.561 861.355,756.228 861.5,757C 845.345,826.856 807.178,881.022 747,919.5C 746.667,919.167 746.333,918.833 746,918.5C 742.136,921.855 737.969,924.855 733.5,927.5C 720.022,933.633 707.022,939.8 694.5,946C 679.139,950.249 664.139,955.249 649.5,961C 642.087,962.52 634.754,964.353 627.5,966.5C 626.558,966.392 625.725,966.059 625,965.5C 621.528,968.048 617.861,969.048 614,968.5C 610.58,969.182 607.246,970.182 604,971.5C 603.086,970.346 602.253,970.513 601.5,972C 587.146,973.46 573.146,975.293 559.5,977.5C 557.833,977.167 556.167,976.833 554.5,976.5C 557.5,975.667 560.5,974.833 563.5,974C 562.552,973.517 561.552,973.351 560.5,973.5 Z"/></g>
<g><path style="opacity:1" fill="#9c70a9" d="M 215.5,738.5 C 276.668,737.168 338.001,737.168 399.5,738.5C 399.376,739.107 399.043,739.44 398.5,739.5C 337.669,738.501 276.669,738.168 215.5,738.5 Z"/></g>
<g><path style="opacity:1" fill="#fefefe" d="M 215.5,738.5 C 276.669,738.168 337.669,738.501 398.5,739.5C 391.79,771.717 385.457,804.051 379.5,836.5C 423.835,836.667 468.168,836.5 512.5,836C 532.072,835.148 551.406,832.648 570.5,828.5C 582.457,826.092 594.123,822.592 605.5,818C 642.613,803.388 667.613,777.221 680.5,739.5C 740.163,738.5 799.83,738.167 859.5,738.5C 853.197,784.094 835.697,824.76 807,860.5C 773.324,899.436 732.157,927.603 683.5,945C 643.403,958.916 602.403,968.416 560.5,973.5C 547.805,973.837 535.139,974.67 522.5,976C 404.167,976.5 285.834,976.667 167.5,976.5C 183.14,896.964 199.14,817.631 215.5,738.5 Z"/></g>
</svg>
